<?xml version="1.0" encoding="utf-8"?>
<!-- Generator: Adobe Illustrator 16.0.0, SVG Export Plug-In . SVG Version: 6.00 Build 0)  -->
<!DOCTYPE svg PUBLIC "-//W3C//DTD SVG 1.1//EN" "http://www.w3.org/Graphics/SVG/1.1/DTD/svg11.dtd">
<svg version="1.1" id="Layer_1" xmlns="http://www.w3.org/2000/svg" xmlns:xlink="http://www.w3.org/1999/xlink" x="0px" y="0px"
	 width="3000px" height="3000px" viewBox="0 0 3000 3000" enable-background="new 0 0 3000 3000" xml:space="preserve">
<g>
	<path fill-rule="evenodd" clip-rule="evenodd" fill="#281000" d="M2403.406,1386.267v81.687h-56.059
		c-27.189,0-49.852,1.956-68.02,5.977c-18.047,3.976-34.389,10.457-48.773,19.464c-27.24,17.124-41.041,38.168-41.041,63.237
		c0,23.588,13.092,43.857,39.42,60.83c15.459,9.977,32.611,16.908,51.49,20.99c18.885,4.088,43.291,6.129,73.445,6.129h49.527v81.68
		h-74.801c-67.318,0-122.563-7.744-165.6-23.6c-54.271-20.033-92.363-49.018-114.669-86.752
		c-11.279-19.053-17.065-38.584-17.065-58.516c0-26.07,9.488-51.426,28.438-75.974c14.488-18.798,33.271-35.247,56.93-49.346
		c34.369-20.444,75.396-33.704,122.855-40.096c27.896-3.809,59.541-5.716,94.795-5.716h69.127V1386.267z"/>
	<path fill-rule="evenodd" clip-rule="evenodd" fill="#281000" d="M2558.826,1270.489v196.437l1.146,3.94
		c50.893,6.524,105.834-6.007,131.254-51.869c13.227-19.201,16.338-32.736,16.455-32.736h112.432
		c19.859,58.281-30.328,109.502-80.67,129.628c80.992,53.438,91.432,111.625,88.063,210.42h-133.559h-0.064
		c2.086-79.154-10.463-171.324-135.26-163.795l0.203,163.795h-140.162v-455.82H2558.826z"/>
	<path fill-rule="evenodd" clip-rule="evenodd" fill="#281000" d="M734.091,1729.482h256.515l20.421-0.598
		c85.29-2.484,142.424-69.486,143.073-142.557c0.752-81.504-73.986-131.799-159.962-131.799H848.966h-7.043
		c-23.241,0-38.866-19.764-40.178-39.496c-1.513-22.806,16.945-46.755,43.7-46.755h284.677v-97.029H840.497
		c-110.648,0-157.823,61.684-159.984,135.963c-2.075,72.49,57.101,143.746,142.365,143.746h157.86l17.626,1.236
		c21.118,1.404,34.693,17.918,35.936,35.916c1.6,22.76-21.14,43.742-47.903,43.742l-314.701,1.258l2.121-362.486l-193.517-0.11
		c-60.601-0.928-92.208,35.942-114.741,87.36l-193.603,370.416l11.049,0.596l143.238-1.248
		c50.595-104.967,101.198-209.887,151.793-314.804c19.282-33.484,30.088-38.43,65.129-34.632l-0.063,351.311L734.091,1729.482z"/>
	<path fill-rule="evenodd" clip-rule="evenodd" fill="#281000" d="M1279.802,1447.397h102.949c24.513,0,39.165-4.646,46.472-12.243
		c6.005-6.121,8.953-14.558,8.953-22.727c0-11.089-4.148-19.266-12.278-24.568c-8.257-5.32-21.997-9.232-39.726-9.232l-106.36,0.112
		v68.658H1279.802z M1389.551,1270.489c37.4,1.226,66.687-2.209,90.883,4.985c51.616,14.375,79.487,37.275,93.07,65.319
		c7.594,15.402,10.119,31.829,10.119,49.035c0,31.494-9.341,58.401-30.367,78.53c-9.727,9.3-19.346,16.423-30.956,21.403
		c-11.559,4.979-29.55,11.225-50.335,15.174c84.159,46.939,106.204,99,106.204,220.182h-145.975
		c-0.246-123.1-49.141-171.352-152.397-170.127v171.273h-109.431v-455.775H1389.551z"/>
	<path fill-rule="evenodd" clip-rule="evenodd" fill="#281000" d="M1799.642,1484.515c42.51,0,77.184,32.249,77.184,71.749
		c0,39.531-34.674,71.738-77.184,71.738c-42.514,0-77.192-32.207-77.192-71.738
		C1722.449,1516.764,1757.128,1484.515,1799.642,1484.515"/>
	<path fill-rule="evenodd" clip-rule="evenodd" fill="#281000" d="M1799.642,1460.483c56.754,0,103.057,43.052,103.057,95.791
		c0,52.74-46.303,95.785-103.057,95.785c-56.762,0-103.061-43.045-103.061-95.785
		C1696.581,1503.535,1742.885,1460.483,1799.642,1460.483 M1799.642,1386.267c123.535,0,224.307,76.384,224.307,170.007
		c0,93.658-100.767,170-224.307,170c-123.544,0-224.315-76.342-224.315-170C1575.331,1462.651,1676.098,1386.267,1799.642,1386.267"
		/>
	<path fill-rule="evenodd" clip-rule="evenodd" fill="#281000" d="M2762.916,1285.408c17.832,0,32.373,14.266,32.373,31.719
		c0,17.468-14.541,31.747-32.373,31.747c-17.816,0-32.383-14.279-32.383-31.747
		C2730.533,1299.664,2745.1,1285.408,2762.916,1285.408 M2762.916,1280.818c20.43,0,37.09,16.306,37.09,36.309
		c0,20.034-16.656,36.323-37.09,36.323c-20.398,0-37.055-16.289-37.055-36.323
		C2725.861,1297.115,2742.518,1280.818,2762.916,1280.818"/>
	<path fill-rule="evenodd" clip-rule="evenodd" fill="#281000" d="M2751.803,1314.561h12.48c2.646,0,4.74-0.293,6.24-0.822
		c1.504-0.522,2.627-1.441,3.408-2.659c0.787-1.204,1.166-2.485,1.166-3.926c0-2.09-0.736-3.792-2.289-5.09
		c-1.479-1.362-3.852-2.051-7.109-2.051h-13.896V1314.561L2751.803,1314.561z M2745.969,1339.107v-43.931h19.486
		c3.926,0,6.889,0.406,8.936,1.165c2.061,0.798,3.656,2.192,4.906,4.155c1.213,2.019,1.799,4.219,1.799,6.647
		c0,3.111-0.996,5.747-3.008,7.876c-2.033,2.146-5.137,3.491-9.381,4.101c1.547,0.72,2.725,1.465,3.525,2.176
		c1.699,1.536,3.301,3.499,4.809,5.817l7.646,11.985h-7.293l-5.822-9.144c-1.699-2.659-3.094-4.67-4.207-6.047
		c-1.084-1.417-2.076-2.382-2.939-2.937c-0.859-0.562-1.729-0.95-2.633-1.172c-0.697-0.156-1.752-0.188-3.246-0.188h-6.744v19.495
		H2745.969z"/>
</g>
</svg>
